# xmcd
#
# Track frame offsets:
#	150
#	23212
#	40807
#	58098
#	72654
#	91380
#	110328
#	128146
#	150784
#	164971
#	171999
#	197618
#	209536
#	227021
#	243572
#	249038
#	264903
#	287807
#
# Disc length: 4005 seconds
#
# Revision: 1
# Processed by: cddbd v1.5.2PL0 Copyright (c) Steve Scherf et al.
# Submitted via: audiograbber 1.83.01
#
DISCID=fe0fa312
DTITLE=Verschiedene Interpreten - Jö schau... - Gevatter Tod
DYEAR=2015
DGENRE=Austro Pop
TTITLE0=Wolfgang Ambros - Es lebe der Zentralfriedhof
TTITLE1=EAV - Liebe, Tod und Teufel (Live)
TTITLE2=Skero feat. Kamp - Wien Suizid
TTITLE3=Austria 3 - Die Moritat vom Frauenmörder Wurm
TTITLE4=Sigi Maron - Stö da fua du bist oid
TTITLE5=Bloodsucking Zombies From Outer Space - A schöne Leich
TTITLE6=Wolfgang Ambros - Heit drah i mi ham
TTITLE7=Georg Danzer - Wiener Trilogie
TTITLE8=Franz Morak - Suizid
TTITLE9=Klaus Eberhartinger and Die Gruftgranaten - Austropop in tot-weiss-tot
TTITLE10=EAV - Der Tod
TTITLE11=Adi Hirschal and Wolfgang Böck - Wann i amoi stirb
TTITLE12=Georg Danzer - I schdiab boid
TTITLE13=Der Nino aus Wien - Mein Tod
TTITLE14=Wolfgang Ambros, Manfred Tauchen and Joesi Prokopetz - Der schwarze Tod
TTITLE15=Austria 3 - Das Leben, die Liebe und der Tod
TTITLE16=Ludwig Hirsch - I lieg am Ruckn
TTITLE17=Georg Danzer - A letztes Liad
EXTD=
EXTT0=
EXTT1=
EXTT2=
EXTT3=
EXTT4=
EXTT5=
EXTT6=
EXTT7=
EXTT8=
EXTT9=
EXTT10=
EXTT11=
EXTT12=
EXTT13=
EXTT14=
EXTT15=
EXTT16=
EXTT17=
PLAYORDER=
